<?xml version="1.0" encoding="UTF-8"?>
<svg id="Layer_1" data-name="Layer 1" xmlns="http://www.w3.org/2000/svg" viewBox="0 0 800 318.9">
  <defs>
    <style>
      .cls-1 {
        fill-rule: evenodd;
      }

      .cls-1, .cls-2, .cls-3, .cls-4 {
        stroke-width: 0px;
      }

      .cls-1, .cls-3 {
        fill: #ea0a2c;
      }

      .cls-2 {
        fill: #fff;
      }

      .cls-4 {
        fill: #ed3123;
      }
    </style>
  </defs>
  <g id="IndiHome">
    <path class="cls-3" d="M49.78,69.03c-3.17,0-6.15.62-8.85,1.83l-2.95,1.33v104.28c0,4.62,1.27,8.43,3.78,11.31,1.85,2.12,5.3,4.66,11.27,4.66,3.31,0,6.32-.63,8.94-1.87l2.86-1.35v-104.21c0-4.62-1.27-8.43-3.78-11.31-1.85-2.12-5.3-4.66-11.27-4.66Z"/>
    <path class="cls-3" d="M129.35,102.4c-6.72,0-12.8,1.52-18.08,4.52-1.65.94-3.18,2-4.58,3.17-.48-.85-1.04-1.63-1.69-2.34-2.58-2.82-6.19-4.26-10.72-4.26-2.1,0-4.74.54-8.07,1.65l-3.42,1.14v86.17h25.91v-52.74c0-4.62,1.28-8.13,3.92-10.73,2.66-2.62,6.21-3.89,10.86-3.89,5.78,0,11.69,1.83,11.69,15.4v51.97h25.76v-55.99c0-10.31-2.83-18.62-8.43-24.71-5.7-6.2-13.49-9.34-23.15-9.34Z"/>
    <path class="cls-3" d="M245.08,64.7c-9.03,0-14.43,5.74-14.43,15.35v27.17c-.67-.5-1.36-.98-2.08-1.43-5.22-3.28-11.47-4.94-18.57-4.94-11.76,0-21.16,4.36-27.95,12.95-6.51,8.23-9.81,19.34-9.81,33s3.34,24.75,9.92,32.89c6.84,8.46,16.41,12.75,28.46,12.75,6.92,0,13.02-1.46,18.14-4.35,1.62-.91,3.1-1.94,4.46-3.07.46.71.99,1.37,1.58,2,2.69,2.85,6.4,4.35,10.74,4.35,3.47,0,6.43-.8,8.8-2.39l2.23-1.48v-120.15l-3.42-1.14c-3.01-1-5.65-1.49-8.07-1.49ZM230.66,155.77c0,2.43-.67,4.65-2.05,6.78-1.45,2.23-3.35,3.96-5.8,5.26-2.48,1.32-5.15,1.96-8.16,1.96-5.05,0-8.77-1.8-11.7-5.67-3.17-4.19-4.78-10.11-4.78-17.61s1.61-13.43,4.79-17.45c2.98-3.77,6.74-5.52,11.84-5.52,3.13,0,5.82.68,8.2,2.09,2.42,1.43,4.26,3.27,5.64,5.63,1.36,2.34,2.02,4.8,2.02,7.53v17Z"/>
    <g>
      <path class="cls-4" d="M295.84,72.95l-12.36-11.01-11.03,13.24c-1.8,2.15-2.71,4.43-2.71,6.76,0,2.67,1.11,5.08,3.19,6.95l12.17,11.04,11.26-13.25c1.79-2.15,2.7-4.37,2.7-6.6,0-2.77-1.11-5.23-3.22-7.13Z"/>
      <path class="cls-3" d="M271.75,177.09c0,4.51,1.19,8.18,3.52,10.9,2.53,2.95,6.2,4.45,10.91,4.45,2.76,0,5.54-.53,8.27-1.56l3.22-1.23v-86.32h-25.91v73.76Z"/>
    </g>
    <path class="cls-3" d="M392.47,69.03c-3.14,0-6.14.6-8.92,1.79l-3.03,1.3v46.2h-36.35v-33.63c0-4.7-1.34-8.51-3.99-11.31-2.73-2.88-6.44-4.35-11.05-4.35-3.45,0-6.49.65-9.04,1.92l-2.76,1.38v104.45c0,4.81,1.32,8.64,3.91,11.39,2.67,2.84,6.37,4.27,10.98,4.27,3.14,0,6.14-.6,8.92-1.79l3.03-1.3v-45.58h36.35v33.01c0,4.71,1.34,8.51,3.99,11.31,2.72,2.89,6.44,4.35,11.05,4.35,3.45,0,6.49-.65,9.04-1.92l2.76-1.38v-104.45c0-4.8-1.32-8.63-3.91-11.39-2.68-2.83-6.37-4.27-10.98-4.27Z"/>
    <g>
      <g>
        <path class="cls-3" d="M425.36,112.45v73.56c0,3.55,2.88,6.43,6.43,6.43h90.76c3.55,0,6.43-2.88,6.43-6.43v-73.56l-51.81-29.77-51.81,29.77Z"/>
        <path class="cls-1" d="M535.66,96.1l-53.75-30.87c-1.71-.99-3.09-1.58-4.56-1.63s-3.04.45-5.15,1.67l-8.92,5.13c.03-.4.04-.8.04-1.21,0-9.45-7.67-17.12-17.12-17.12s-17.12,7.67-17.12,17.12c0,6.53,3.7,12.48,9.55,15.36l-20.13,11.57c-3.95,2.27-4.29,6.67-2.47,9.93,1.82,3.27,6.27,4.57,9.68,2.62l17.03-9.78v-23.96c0-.98.78-1.77,1.77-1.77h3.3c.98,0,1.76.79,1.76,1.77v20.04l27.5-15.79,51.36,29.5c3.95,2.27,7.92.35,9.82-2.87,1.9-3.21.79-7.72-2.62-9.67ZM440.58,75.48c-.81.58-1.78,0-2.29-.54-1.76-1.89-2.79-4.44-2.79-7.21s.96-5.39,2.79-7.21c.58-.58,1.47-1.08,2.29-.54.63.41.83,1.26-.33,2.49-1.28,1.36-1.96,3.24-1.96,5.26s.69,3.9,1.96,5.26c1.16,1.23.94,2.05.33,2.49ZM443.49,70.22c.71.75,1.09,1.42.54,2.03-.72.8-1.57.49-2.13-.08-1.26-1.28-1.82-2.96-1.82-4.43s.49-3.23,1.82-4.43c.62-.56,1.4-.85,2.13-.08.57.59.17,1.28-.54,2.03-.55.57-.91,1.46-.91,2.49s.36,1.92.91,2.49ZM446.31,69.26c-.83,0-1.5-.67-1.5-1.49s.67-1.5,1.5-1.5,1.49.67,1.49,1.5-.67,1.49-1.49,1.49ZM448.55,72.24c-.55-.61-.17-1.28.54-2.03.55-.57.91-1.46.91-2.49s-.36-1.92-.91-2.49c-.71-.75-1.11-1.44-.54-2.03.73-.76,1.52-.47,2.14.08,1.33,1.2,1.82,2.96,1.82,4.43s-.56,3.15-1.82,4.43c-.56.57-1.42.89-2.14.08ZM454.3,74.94c-.51.55-1.48,1.12-2.29.54-.61-.44-.83-1.26.33-2.49,1.28-1.36,1.96-3.24,1.96-5.26s-.69-3.9-1.96-5.26c-1.15-1.23-.96-2.08-.33-2.49.83-.54,1.71-.03,2.29.54,1.83,1.82,2.8,4.44,2.8,7.21s-1.03,5.32-2.8,7.21Z"/>
      </g>
      <path class="cls-2" d="M499.98,104.59h0c-6.66-3.82-14.39-5.76-22.96-5.76s-16.29,1.94-22.9,5.77c-6.68,3.87-11.9,9.35-15.53,16.31-3.55,6.82-5.36,14.75-5.36,23.56s1.8,16.91,5.35,23.77c3.62,7.01,8.85,12.53,15.53,16.4,6.62,3.83,14.32,5.77,22.9,5.77s16.3-1.94,22.96-5.76c6.73-3.87,12.01-9.38,15.69-16.38,3.61-6.88,5.44-14.88,5.44-23.8s-1.83-16.75-5.45-23.59c-3.68-6.95-8.96-12.43-15.68-16.29ZM490.22,162.15c-2.99,3.65-7.31,5.43-13.21,5.43s-10.06-1.78-13.05-5.43c-3.2-3.9-4.82-9.85-4.82-17.69s1.63-13.52,4.83-17.48c2.99-3.69,7.26-5.49,13.04-5.49s10.21,1.78,13.2,5.43c3.2,3.9,4.82,9.81,4.82,17.54s-1.62,13.79-4.82,17.69Z"/>
    </g>
    <path class="cls-3" d="M637.81,102.4c-7.32,0-13.78,1.74-19.21,5.18-2.64,1.68-4.94,3.67-6.87,5.96-6.23-8.99-14.93-11.14-21.82-11.14s-12.89,1.71-17.98,5.08c-1.16.77-2.24,1.6-3.25,2.5-.42-.76-.91-1.47-1.46-2.12-1.71-2-4.86-4.38-10.21-4.38-3.22,0-6.3.59-9.16,1.76l-3.11,1.27v85.92h25.92v-54.6c0-4,1.13-7.05,3.45-9.34,2.34-2.31,5.44-3.43,9.47-3.43,5.01,0,7.07,1.9,8.18,3.33,2.02,2.59,3.04,6.81,3.04,12.53v51.51h23.91v-54.6c0-3.79,1.18-6.79,3.61-9.18,2.45-2.41,5.5-3.58,9.32-3.58,3.59,0,6.12,1.1,7.94,3.46,2.08,2.69,3.13,6.87,3.13,12.4v51.51h25.91v-57.69c0-9.83-2.77-17.74-8.25-23.52-5.55-5.85-13.14-8.82-22.56-8.82Z"/>
    <path class="cls-3" d="M751.33,111.96c-6.83-7.37-16.17-11.1-27.77-11.1-8.3,0-15.69,1.9-21.96,5.65-6.33,3.79-11.27,9.25-14.67,16.24-3.31,6.79-4.99,14.78-4.99,23.75,0,13.93,3.94,25.17,11.71,33.41,7.85,8.32,18.53,12.54,31.76,12.54,6.09,0,11.63-.85,16.46-2.51,5.05-1.74,9.13-4.18,12.14-7.25,3.41-3.48,5.14-7.54,5.14-12.07,0-5.27-2.75-9.41-7.73-11.66l-4.06-1.83-2.29,3.82c-1.68,2.81-3.98,4.92-7.01,6.46-3.13,1.59-6.97,2.4-11.41,2.4-6.58,0-11.34-1.62-14.56-4.96-2.37-2.46-3.75-5.72-4.16-9.92h51.67l.95-3.79c.62-2.48.92-5.61.92-9.56,0-12.37-3.41-22.33-10.14-29.59ZM708.84,133c.65-2.16,1.78-3.98,3.39-5.5h0c2.82-2.67,6.58-3.97,11.48-3.97,4.29,0,7.57,1.22,10.01,3.74,1.5,1.55,2.54,3.44,3.12,5.73h-28Z"/>
  </g>
  <g>
    <path class="cls-3" d="M441.69,237.79c1.51,1.91,2.26,4.49,2.26,7.74s-.76,5.82-2.28,7.7-3.64,2.82-6.36,2.82c-1.57,0-2.93-.32-4.06-.96-1.13-.64-1.95-1.52-2.46-2.64v.68c0,.8-.23,1.44-.68,1.92-.45.48-1.07.72-1.84.72-.64,0-1.16-.13-1.56-.4v-29.48c.64-.21,1.2-.32,1.68-.32,1.63,0,2.44.89,2.44,2.68v10.88c.53-1.36,1.37-2.4,2.52-3.12,1.15-.72,2.52-1.08,4.12-1.08,2.64,0,4.71.95,6.22,2.86ZM438.33,250.79c1-1.32,1.5-3.1,1.5-5.34s-.51-4.04-1.52-5.32c-1.01-1.28-2.37-1.92-4.08-1.92-1.04,0-1.97.24-2.78.72-.81.48-1.45,1.12-1.92,1.92s-.7,1.67-.7,2.6v4.4c0,.88.25,1.7.74,2.46.49.76,1.15,1.36,1.98,1.8.83.44,1.73.66,2.72.66,1.71,0,3.06-.66,4.06-1.98Z"/>
    <path class="cls-3" d="M466.43,235.93l-6.88,22.2c-.48,1.52-1.25,2.71-2.32,3.58-1.07.87-2.36,1.3-3.88,1.3-1.07,0-1.93-.21-2.58-.62-.65-.41-.98-.98-.98-1.7,0-.45.16-1.03.48-1.72.29.29.67.52,1.14.68s.97.24,1.5.24c1.01,0,1.86-.28,2.54-.84.68-.56,1.02-1.25,1.02-2.08,0-.77-.22-1.35-.66-1.74-.44-.39-1.07-.54-1.9-.46l-6.48-18.84c.67-.48,1.36-.72,2.08-.72.85,0,1.47.25,1.84.74.37.49.69,1.11.96,1.86l2.56,7.68.32,1c.91,2.8,1.59,4.97,2.04,6.52.83-3.12,1.53-5.65,2.12-7.6l2.24-7.56c.21-.77.51-1.41.9-1.9.39-.49,1.02-.74,1.9-.74.69,0,1.37.24,2.04.72Z"/>
  </g>
  <path id="Telkomsel" class="cls-3" d="M604.67,250.4c-5.06,0-8.74-3.68-8.74-9.67s3.68-9.67,8.74-9.67,8.74,3.68,8.74,9.67-3.68,9.67-8.74,9.67ZM604.67,223.24c-10.12,0-17.94,7.37-17.94,17.49s7.36,17.49,17.94,17.49,17.94-7.37,17.94-17.49c-.46-10.13-7.82-17.49-17.94-17.49ZM572.01,241.2c-.46,0-.46-.46,0-.46,1.84-.46,3.22-1.84,4.6-3.22l11.04-13.81h-10.58l-11.96,15.19v-29.46h-9.2v48.33h9.2v-15.65l10.58,12.43c1.84,2.3,3.68,3.22,6.9,3.22h6.44l-12.42-14.27c-.92-1.38-2.76-2.3-4.6-2.3h0ZM666.78,223.24c-5.52,0-9.2,2.76-11.04,5.98-1.84-3.68-5.06-5.98-10.58-5.98-4.14,0-7.36,1.84-8.74,4.6,0,.46-.46.46-.46,0-.46-2.3-2.76-4.14-5.06-4.14h-3.68v34.06h9.2v-17.03c0-5.98,2.3-9.67,6.9-9.67,3.68,0,5.52,2.3,5.52,6.44v20.71h9.2v-17.95c0-5.98,2.3-9.67,6.44-9.67,3.68,0,5.52,2.3,5.52,6.44v20.71h9.2v-23.02c0-6.9-5.06-11.51-12.42-11.51ZM549.47,214.5c0-2.76-2.3-5.06-5.06-5.06h-3.68v42.35c0,5.06,3.22,6.9,6.44,6.9,1.38,0,2.76-.46,4.14-.92-1.38-1.84-1.84-5.06-1.84-7.37v-35.91ZM497.02,220.02c0-5.06-4.14-9.21-9.2-9.21h-8.74c-2.76,0-5.06,2.3-5.06,5.52v4.14h13.8v31.3c0,5.06,3.22,6.9,6.44,6.9,1.38,0,3.22-.46,4.14-.92-1.38-1.84-1.84-5.06-1.84-7.37l.46-30.38ZM510.36,218.18v-7.37h-16.56c-.46,0-.46.46,0,.46,2.3,1.38,4.14,4.14,4.6,6.9,0,1.38.92,1.84,2.3,1.84h7.36c1.8-.02,2.3-.46,2.3-1.84ZM698.99,237.05c-4.6-1.38-5.98-2.3-5.98-3.68,0-1.84,1.84-3.22,5.06-3.22,3.68,0,7.82,1.38,10.12,3.22v-7.37c-2.76-1.84-6.44-2.76-10.58-2.76-8.28,0-13.34,4.6-13.34,10.59s5.06,8.75,10.58,10.13c4.6,1.38,6.9,2.3,6.9,4.14,0,2.3-1.84,3.68-5.52,3.68-5.06,0-8.74-1.84-11.5-4.6v7.83c3.22,2.3,7.36,3.22,11.96,3.22,8.74,0,13.8-4.14,13.8-10.59,0-6.9-5.98-9.21-11.5-10.59h0ZM511.74,237.05c.92-4.14,3.68-7.37,7.82-7.37,3.68,0,6.44,2.3,6.9,7.37h-14.72ZM519.56,223.24c-9.2,0-17.02,6.9-17.02,17.95,0,10.13,6.9,17.49,18.4,17.49,4.14,0,8.28-1.38,11.96-3.22v-8.29c-3.22,2.3-6.9,3.68-11.04,3.68-5.52,0-9.66-2.3-10.58-7.83h23.92c0-.92.46-2.3.46-3.22-.46-10.59-7.36-16.57-16.1-16.57ZM722.45,237.05c.92-4.14,3.68-7.37,7.82-7.37,3.68,0,6.44,2.3,6.9,7.37h-14.72ZM730.27,223.24c-9.2,0-17.02,6.9-17.02,17.95,0,10.13,6.9,17.49,18.4,17.49,4.14,0,8.28-1.38,11.96-3.22v-8.29c-3.22,2.3-6.9,3.68-11.04,3.68-5.52,0-9.66-2.3-10.58-7.83h23.92c0-.92.46-2.3.46-3.22-.46-10.59-7.36-16.57-16.1-16.57ZM760.18,249.94v-35.45c0-2.76-2.3-5.06-5.06-5.06h-3.68v42.35c0,5.06,3.22,6.9,6.44,6.9,1.38,0,2.76-.46,4.14-.92-1.84-2.3-1.84-5.06-1.84-7.83h0Z"/>
</svg>